<svg xmlns="http://www.w3.org/2000/svg" xmlns:xlink="http://www.w3.org/1999/xlink" width="125.852" height="24.781" viewBox="0 0 125.852 24.781">
  <defs>
    <linearGradient id="linear-gradient" x1="0.5" x2="0.602" y2="2.861" gradientUnits="objectBoundingBox">
      <stop offset="0" stop-color="#7cd4fb"/>
      <stop offset="1" stop-color="#8b4bfc"/>
    </linearGradient>
    <linearGradient id="linear-gradient-2" x2="2.346" y2="2.746" xlink:href="#linear-gradient"/>
    <linearGradient id="linear-gradient-3" x2="-0.409" y2="2.678" xlink:href="#linear-gradient"/>
    <linearGradient id="linear-gradient-4" x1="0.553" y1="-0.223" x2="0.474" y2="1.087" xlink:href="#linear-gradient"/>
  </defs>
  <g id="logo" transform="translate(-148.076 -85.356)">
    <path id="Path_7" data-name="Path 7" d="M11.768,9.813a1.976,1.976,0,0,1-.034.332,2.959,2.959,0,0,1-.1.405q-.068.21-.151.4a1.106,1.106,0,0,1-.19.308h.01q-.312.371-1.475.371A6.7,6.7,0,0,0,9.79,10.9a1.816,1.816,0,0,0-.112-.493.589.589,0,0,0-.244-.264,1.755,1.755,0,0,0-.4-.176,3.027,3.027,0,0,0-.444-.1A2.644,2.644,0,0,0,8.2,9.832q-.42,0-.82.02A7.744,7.744,0,0,0,6.6,9.93a6.979,6.979,0,0,0-.781.166,7.132,7.132,0,0,0-.806.273,6.123,6.123,0,0,0-.62.293,4.359,4.359,0,0,0-.61.4,2.694,2.694,0,0,0-.483.479,1.223,1.223,0,0,0-.249.552l.01-.02a1.115,1.115,0,0,0,.156.522,2.626,2.626,0,0,0,.425.566,3.564,3.564,0,0,0,.62.508A2.625,2.625,0,0,0,5,14l.166.059q.137.049.332.112t.415.142q.22.078.41.142l.322.107q.132.044.151.054A9.849,9.849,0,0,1,10.156,16,2.409,2.409,0,0,1,11.25,18a1.859,1.859,0,0,1-.166.757,3.724,3.724,0,0,1-.42.718,5.13,5.13,0,0,1-.552.63,5.7,5.7,0,0,1-.562.483l.01-.01q-.283.225-.64.459t-.767.459q-.41.225-.85.42a8.793,8.793,0,0,1-.9.342q-.43.137-.9.259t-.942.21q-.469.088-.9.137a7.1,7.1,0,0,1-.786.049,2.89,2.89,0,0,1-.454-.044q-.269-.044-.566-.122t-.6-.186a3.231,3.231,0,0,1-.532-.244,1.674,1.674,0,0,1-.381-.293A.48.48,0,0,1,.2,21.688a1.553,1.553,0,0,1,.059-.381,1.977,1.977,0,0,1,.171-.435,1.521,1.521,0,0,1,.264-.361.457.457,0,0,1,.327-.151,1.738,1.738,0,0,1,.459.059l.483.132q.269.073.625.137a5.16,5.16,0,0,0,.884.063,5.7,5.7,0,0,0,1.1-.112,8.614,8.614,0,0,0,1.128-.3A9.7,9.7,0,0,0,6.758,19.9a8.546,8.546,0,0,0,.918-.508q.176-.117.386-.269a3.187,3.187,0,0,0,.391-.332,2.13,2.13,0,0,0,.3-.376.747.747,0,0,0,.122-.4q0-.234-.352-.449v.01A4.989,4.989,0,0,0,7.5,17.1q-.508-.166-.889-.273a23.834,23.834,0,0,1-2.617-.869H4a6.747,6.747,0,0,1-1.25-.654,6.69,6.69,0,0,1-1.045-.84,3.624,3.624,0,0,1-.977-2.5,2.1,2.1,0,0,1,.313-1.084,4.043,4.043,0,0,1,.85-.991A7.27,7.27,0,0,1,3.14,9.031a9.726,9.726,0,0,1,1.509-.669,11.315,11.315,0,0,1,1.636-.435A8.783,8.783,0,0,1,7.9,7.771q.244,0,.61.034t.752.1q.386.063.737.156a2.356,2.356,0,0,1,.557.21h-.01a2.757,2.757,0,0,1,.894.723A1.344,1.344,0,0,1,11.768,9.813Zm14.424,3.8a.59.59,0,0,1-.229.439,2.514,2.514,0,0,1-.6.381,6.058,6.058,0,0,1-.84.317q-.469.142-.942.254t-.908.186l-.737.122q-1.094.156-1.821.234a3.871,3.871,0,0,0-1.04.215q-.176.732-.356,1.519t-.327,1.47q-.146.684-.239,1.191a4.731,4.731,0,0,0-.093.684,2.135,2.135,0,0,0,.01.22.882.882,0,0,0,.034.171q.024.078.049.151t.054.171a1.922,1.922,0,0,1,.078.264q.039.166.073.332t.054.308a1.7,1.7,0,0,1,.02.2,1.154,1.154,0,0,1-.083.405,1.678,1.678,0,0,1-.229.415,1.346,1.346,0,0,1-.352.327.831.831,0,0,1-.459.132.874.874,0,0,1-.483-.142,1.573,1.573,0,0,1-.4-.371,2.684,2.684,0,0,1-.308-.518,4.775,4.775,0,0,1-.22-.571,4.362,4.362,0,0,1-.132-.532,2.468,2.468,0,0,1-.044-.415q0-.166.034-.518a4.34,4.34,0,0,1,.132-.713q.3-1.143.469-1.88t.244-1.182q.078-.444.1-.649t.034-.283q-.127,0-.361.015T15.894,16q-.249.024-.464.039t-.293.015a4.653,4.653,0,0,1-.869-.068,1.155,1.155,0,0,1-.571-.269,1.113,1.113,0,0,1-.312-.566,4.045,4.045,0,0,1-.093-.962,7.641,7.641,0,0,0,.815-.054,4.822,4.822,0,0,1,.62-.044q.078,0,.4-.024l.7-.054q.381-.029.737-.063t.513-.054q.02-.107.078-.342t.132-.518q.073-.283.151-.566t.137-.488q.049-.146.127-.483t.166-.7q.088-.361.161-.669t.093-.4a7.32,7.32,0,0,1,.244-.767,3.047,3.047,0,0,1,.308-.61,1.541,1.541,0,0,1,.376-.4.728.728,0,0,1,.43-.146.983.983,0,0,1,.762.259,1.14,1.14,0,0,1,.234.786,2.9,2.9,0,0,1-.059.547,5.4,5.4,0,0,1-.166.635q-.215.684-.327,1.143t-.181.806q-.068.347-.107.64t-.107.645a.917.917,0,0,0-.015.151q0,.112,0,.161a15.165,15.165,0,0,0,1.646-.088q.806-.088,1.636-.166.469-.049.825-.107l.659-.107q.3-.049.591-.083a5.276,5.276,0,0,1,.62-.034,1.293,1.293,0,0,1,.244.024.673.673,0,0,1,.229.088.5.5,0,0,1,.171.186A.646.646,0,0,1,26.191,13.611Zm15.146.557a2.429,2.429,0,0,1-.386,1.206A7.531,7.531,0,0,1,39.946,16.7a13.975,13.975,0,0,1-1.387,1.289,15.6,15.6,0,0,1-1.533,1.108,10.5,10.5,0,0,1-1.45.776,3.022,3.022,0,0,1-1.133.293,1.978,1.978,0,0,1-1.06-.269,2.288,2.288,0,0,1-.723-.713,3.808,3.808,0,0,1-.454-1.016,7.777,7.777,0,0,1-.244-1.177,6.079,6.079,0,0,1-.391.762q-.244.41-.527.811t-.571.757q-.288.356-.532.61a8.181,8.181,0,0,1-.752.7,5.533,5.533,0,0,1-.879.591,4.99,4.99,0,0,1-.991.405,3.893,3.893,0,0,1-1.089.151,1.733,1.733,0,0,1-.845-.2,1.9,1.9,0,0,1-.61-.522,2.268,2.268,0,0,1-.366-.737,2.945,2.945,0,0,1-.122-.835,4.836,4.836,0,0,1,.063-.767q.063-.4.142-.8t.151-.8a7.42,7.42,0,0,0,.1-.767q.02-.283.039-.605t.039-.649q.02-.327.054-.654t.083-.61a2.164,2.164,0,0,1,.112-.391.989.989,0,0,1,.21-.327.969.969,0,0,1,.347-.225,1.4,1.4,0,0,1,.513-.083.969.969,0,0,1,.864.366,1.988,1.988,0,0,1,.249,1.108q0,.225-.029.518t-.078.61q-.049.317-.112.64t-.142.615q-.166.654-.312,1.274a4.879,4.879,0,0,0-.146,1.108,1.069,1.069,0,0,0,.112.518.325.325,0,0,0,.278.205A1.766,1.766,0,0,0,27.7,19.5a5.126,5.126,0,0,0,.884-.645,8.666,8.666,0,0,0,.815-.84q.386-.454.659-.835a6.33,6.33,0,0,0,.513-.869q.259-.518.508-1.089t.483-1.133q.234-.562.42-.991a2.7,2.7,0,0,1,.586-.889.965.965,0,0,1,.645-.312.845.845,0,0,1,.547.146.673.673,0,0,1,.176.537,4.4,4.4,0,0,1-.039.479q-.039.322-.088.679t-.088.684a4.543,4.543,0,0,0-.039.493q0,.156,0,.381t.015.464q.01.239.034.464t.054.381q.039.166.127.43a3.376,3.376,0,0,0,.22.513,2.3,2.3,0,0,0,.288.43.443.443,0,0,0,.332.181,2.582,2.582,0,0,0,1.079-.264A7.269,7.269,0,0,0,37,17.21a13.952,13.952,0,0,0,1.2-.962q.6-.537,1.167-1.074.234-.225.464-.454t.444-.41a3.713,3.713,0,0,1,.4-.3A.631.631,0,0,1,41,13.895a.327.327,0,0,1,.249.1A.274.274,0,0,1,41.338,14.168Zm3.613,2.275q.137-.176.278-.4a4.905,4.905,0,0,0,.269-.488,1.193,1.193,0,0,1-.2-.342,1.372,1.372,0,0,1-.068-.469,3.167,3.167,0,0,1,.02-.376,2.421,2.421,0,0,0,.02-.288,1,1,0,0,0-.078-.342,2.6,2.6,0,0,0-.19-.4,1.889,1.889,0,0,0-.239-.327.346.346,0,0,0-.234-.137.855.855,0,0,0-.444.264,7.627,7.627,0,0,0-.654.669q-.356.405-.728.894t-.654.947q-.312.508-.562.957t-.4.771a5.9,5.9,0,0,0-.356.986,3.306,3.306,0,0,0-.1.781q0,.605.215.605a1.344,1.344,0,0,0,.532-.161,7.063,7.063,0,0,0,.723-.405q.386-.244.767-.542a6.223,6.223,0,0,0,.645-.571q.547-.566.894-.972T44.951,16.443Zm10.479-2.48a1.278,1.278,0,0,1-.142.5,5.58,5.58,0,0,1-.381.679q-.239.371-.552.781t-.654.811q-.342.4-.688.767t-.649.649l-.728.659a9.36,9.36,0,0,1-.859.688,5.878,5.878,0,0,1-.928.542,2.185,2.185,0,0,1-.923.22,1.425,1.425,0,0,1-.645-.156,1.757,1.757,0,0,1-.723-.625,3.817,3.817,0,0,1-.454-.933,5.493,5.493,0,0,1-.239-1.064q-.068-.552-.088-1.021a7.957,7.957,0,0,1-.5.845q-.3.454-.664.9t-.747.869q-.386.42-.757.762a7.282,7.282,0,0,1-1.992,1.338,5.274,5.274,0,0,1-2.139.449,1.159,1.159,0,0,1-.679-.2,1.645,1.645,0,0,1-.474-.508,2.364,2.364,0,0,1-.273-.674,2.993,2.993,0,0,1-.088-.7,6.131,6.131,0,0,1,.044-.791,2.865,2.865,0,0,1,.122-.557,19.347,19.347,0,0,1,.923-2.271,14.4,14.4,0,0,1,1.265-2.114q.205-.293.488-.635t.6-.664q.317-.322.649-.6a3.348,3.348,0,0,1,.645-.435,3.421,3.421,0,0,1,.9-.3,6.374,6.374,0,0,1,1.216-.1.778.778,0,0,1,.479.161,1.738,1.738,0,0,1,.391.42,3.006,3.006,0,0,1,.308.6,4.662,4.662,0,0,1,.21.688q.049-.283.1-.664t.093-.8l.088-.84q.044-.42.073-.781.039-.381.083-.874t.1-.957q.054-.464.117-.825a1.682,1.682,0,0,1,.132-.479.935.935,0,0,1,.4-.391,1.711,1.711,0,0,1,1.011-.1,1.587,1.587,0,0,1,.313.112q.518.205.518.576a3.643,3.643,0,0,1-.068.542q-.068.386-.186,1.04t-.283,1.606q-.166.952-.361,2.251-.117.762-.176,1.416t-.059,1.328q0,.059.015.308t.049.581q.034.332.088.7a6.62,6.62,0,0,0,.132.679,2.2,2.2,0,0,0,.19.513q.112.205.249.205a1.193,1.193,0,0,0,.5-.132,4.133,4.133,0,0,0,.581-.342,6.975,6.975,0,0,0,.615-.483q.312-.273.605-.557t.557-.557l.459-.479q.557-.586,1.084-1.138t.947-.972a.275.275,0,0,1,.112-.054q.083-.024.171-.044t.166-.029q.078-.01.1-.01a.144.144,0,0,1,.122.059.38.38,0,0,1,.063.151,1.285,1.285,0,0,1,.024.21Q55.43,13.836,55.43,13.963Zm7.988-.615q0,.215-.029.6t-.063.815q-.034.43-.068.835t-.044.659q-.029.625-.1,1.3t-.176,1.353q-.1.679-.239,1.348t-.283,1.274q-.117.488-.273.991t-.347.986q-.19.483-.415.938a8.668,8.668,0,0,1-.469.835,3.316,3.316,0,0,1-2.949,1.592,6.459,6.459,0,0,1-2.373-.459,6.132,6.132,0,0,1-.854-.41,6.661,6.661,0,0,1-.806-.537,3.5,3.5,0,0,1-.6-.581.928.928,0,0,1-.234-.562,2.224,2.224,0,0,1,.029-.356,1.046,1.046,0,0,1,.107-.327.678.678,0,0,1,.21-.239.59.59,0,0,1,.347-.093.533.533,0,0,1,.273.068,1.109,1.109,0,0,1,.225.176,5.29,5.29,0,0,0,.762.669,4.191,4.191,0,0,0,.825.459,4.243,4.243,0,0,0,.928.264,6.389,6.389,0,0,0,1.06.083,1.074,1.074,0,0,0,.615-.2,2.363,2.363,0,0,0,.547-.537,5.111,5.111,0,0,0,.474-.771,8.573,8.573,0,0,0,.4-.913q.176-.479.308-.967t.22-.918q.107-.508.166-1.006t.117-1.084q-.3.254-.7.532t-.83.547q-.435.269-.9.513t-.918.43a7.313,7.313,0,0,1-.874.3,2.974,2.974,0,0,1-.762.112,1.921,1.921,0,0,1-.962-.229,2.068,2.068,0,0,1-.669-.6A2.56,2.56,0,0,1,53.7,19.4a3.608,3.608,0,0,1-.127-.947,6.389,6.389,0,0,1,.049-.737q.049-.415.122-.84t.171-.83q.1-.405.2-.718.02-.049.088-.269t.146-.488q.078-.269.151-.508t.093-.308a5.967,5.967,0,0,1,.239-.615,1.584,1.584,0,0,1,.3-.444,1.131,1.131,0,0,1,.43-.273,1.834,1.834,0,0,1,.625-.093,1,1,0,0,1,.469.107.749.749,0,0,1,.322.342,1.169,1.169,0,0,1,.137.42q.02.2.02.4a1.082,1.082,0,0,1-.107.322q-.107.244-.244.527t-.264.527q-.127.244-.156.322-.293.713-.483,1.274a3.55,3.55,0,0,0-.19,1.147,2.194,2.194,0,0,0,.059.522,1.986,1.986,0,0,0,.146.415.876.876,0,0,0,.2.273.349.349,0,0,0,.229.1,2.856,2.856,0,0,0,.757-.122,6.066,6.066,0,0,0,.908-.342,8.38,8.38,0,0,0,.952-.522,6.476,6.476,0,0,0,.879-.664,5.028,5.028,0,0,0,.693-.762,2.265,2.265,0,0,0,.391-.811,1.544,1.544,0,0,0,.044-.308q.015-.21.024-.479t.02-.576q.01-.308.029-.586t.044-.513a2,2,0,0,1,.063-.361,1.939,1.939,0,0,1,.439-.8.964.964,0,0,1,.713-.273,1.634,1.634,0,0,1,.586.088.734.734,0,0,1,.347.264,1.074,1.074,0,0,1,.166.444A4.023,4.023,0,0,1,63.418,13.348ZM75.879,14.6a.521.521,0,0,1-.078.239,2.048,2.048,0,0,1-.2.288,2.155,2.155,0,0,1-.269.278,1.618,1.618,0,0,1-.3.21,3.655,3.655,0,0,1-.488.166q-.342.1-.8.19t-.977.171q-.522.078-1.021.127-.439.039-.757.073t-.571.059q-.254.024-.479.039t-.488.015q-.02.2-.078.649t-.132,1.035q-.073.581-.156,1.23t-.166,1.24q-.083.591-.146,1.064t-.1.708q-.088.537-.205,1.113a6.476,6.476,0,0,1-.264.967,5.091,5.091,0,0,1-.474.952,6.909,6.909,0,0,1-.659.874,2.37,2.37,0,0,1-1.826.85,1.438,1.438,0,0,1-.474-.083,1.769,1.769,0,0,1-.43-.215,1.222,1.222,0,0,1-.308-.3.573.573,0,0,1-.117-.332,1.3,1.3,0,0,1,.068-.376,1.667,1.667,0,0,1,.2-.415,1.548,1.548,0,0,1,.293-.337.558.558,0,0,1,.371-.142,1.012,1.012,0,0,1,.151.015q.093.015.2.039t.205.039a1.3,1.3,0,0,0,.181.015.963.963,0,0,0,.288-.352,3.294,3.294,0,0,0,.215-.527q.093-.293.171-.62t.137-.64q.127-.654.229-1.25t.19-1.162q.088-.566.156-1.118t.107-1.118q.02-.137.044-.342t.049-.439q.024-.234.039-.464t.015-.415a.267.267,0,0,0-.1-.166q-.1-.1-.215-.225a2.208,2.208,0,0,1-.215-.273.539.539,0,0,1-.1-.3,2.738,2.738,0,0,1,.6-.947,3.86,3.86,0,0,0,.361-.513,1.6,1.6,0,0,0,.166-.425,3.73,3.73,0,0,0,.073-.469q.024-.254.083-.635.088-.557.166-1.016t.19-.874a6.687,6.687,0,0,1,.278-.815,7.206,7.206,0,0,1,.42-.84,5.425,5.425,0,0,1,.5-.713,4.507,4.507,0,0,1,.664-.654,3.5,3.5,0,0,1,.776-.474,2.042,2.042,0,0,1,.83-.181,1.972,1.972,0,0,1,1.455.576,1.905,1.905,0,0,1,.645,1.416,3.786,3.786,0,0,1-.752,2.09,1.3,1.3,0,0,1-1.045.723h-.176a7.634,7.634,0,0,0,.186-.9,5.615,5.615,0,0,0,.059-.771q0-.156-.02-.415a3.176,3.176,0,0,0-.078-.5,1.752,1.752,0,0,0-.156-.425.284.284,0,0,0-.244-.181.374.374,0,0,0-.234.137,2.462,2.462,0,0,0-.278.342q-.142.205-.278.449t-.244.469a5.881,5.881,0,0,0-.273.767q-.146.493-.273,1.055t-.225,1.123q-.1.562-.137.991v.391q0,.059.137.093a2.418,2.418,0,0,0,.366.054q.229.02.522.024t.6,0q.508,0,.972-.02t.923-.063q.459-.044.933-.112t.991-.166q.078-.01.151-.015t.161,0Q75.879,14.207,75.879,14.6ZM87.5,13.484a.793.793,0,0,1-.122.4,2.5,2.5,0,0,1-.312.42,4.446,4.446,0,0,1-.435.415q-.244.205-.488.376t-.464.3q-.22.127-.366.2a4.366,4.366,0,0,1-.679.2q-.415.093-.869.156t-.879.1q-.425.039-.718.039a1.705,1.705,0,0,1-.19-.015q-.122-.015-.264-.044t-.283-.073a.859.859,0,0,1-.239-.112,1.3,1.3,0,0,1,.122.493q.015.269.015.532a2.947,2.947,0,0,1-.039.439q-.039.254-.1.518a4.849,4.849,0,0,1-.151.508,2.457,2.457,0,0,1-.186.41,6.52,6.52,0,0,1-.522.771,5.11,5.11,0,0,1-.62.654,5.492,5.492,0,0,1-.771.566,8.773,8.773,0,0,1-1,.518,5.206,5.206,0,0,1-1.211.366,7.475,7.475,0,0,1-1.25.1,1.489,1.489,0,0,1-.85-.249A2.1,2.1,0,0,1,74,20.8a3.393,3.393,0,0,1-.386-.967,4.859,4.859,0,0,1-.132-1.143,3.424,3.424,0,0,1,.024-.366q.024-.22.068-.444t.1-.439q.054-.215.1-.361a7.7,7.7,0,0,1,.4-.937,11.181,11.181,0,0,1,.61-1.079,11.942,11.942,0,0,1,.781-1.084,7.226,7.226,0,0,1,.913-.947,4.7,4.7,0,0,1,1.006-.669,2.382,2.382,0,0,1,1.05-.254,1.213,1.213,0,0,1,.361.044.665.665,0,0,1,.225.117,1.113,1.113,0,0,1,.161.166,2.067,2.067,0,0,0,.161.181.992.992,0,0,1,.142-.029,1.145,1.145,0,0,1,.151-.01.949.949,0,0,1,.6.234q.293.234.6.518l.278.259q.142.132.259.234a2.3,2.3,0,0,0,.21.166.3.3,0,0,0,.132.063q.254,0,.552,0t.605-.02q.308-.015.6-.044t.522-.068q.029-.01.254-.063t.542-.137l.688-.181.688-.181q.317-.083.547-.137a2.133,2.133,0,0,1,.269-.054.827.827,0,0,1,.313.049Q87.5,13.26,87.5,13.484ZM76.23,20a2.412,2.412,0,0,0,1.4-.42,3.556,3.556,0,0,0,1.03-1.118,5.934,5.934,0,0,0,.649-1.592,7.691,7.691,0,0,0,.239-1.841,1.386,1.386,0,0,0-.2-.3,1.726,1.726,0,0,0-.3-.278,1.836,1.836,0,0,0-.342-.2.8.8,0,0,0-.322-.078.921.921,0,0,0-.508.186q-.273.186-.508.381a2.794,2.794,0,0,0-.464.513,5.093,5.093,0,0,0-.425.708q-.2.391-.361.825t-.283.859a7.555,7.555,0,0,0-.181.825,4.608,4.608,0,0,0-.063.713.951.951,0,0,0,.049.3,1,1,0,0,0,.132.264.638.638,0,0,0,.2.186A.5.5,0,0,0,76.23,20Zm22.637-1.406a.732.732,0,0,1-.049.22,1.927,1.927,0,0,1-.142.308,4.141,4.141,0,0,1-.493.693,7.8,7.8,0,0,1-2.178,1.68,5.415,5.415,0,0,1-2.441.605,2.756,2.756,0,0,1-1.6-.552A10.563,10.563,0,0,1,90.215,19.9q-.439.488-.933,1.1t-.962,1.167q-.146.166-.283.3a1.428,1.428,0,0,1-.3.229,1.4,1.4,0,0,1-.352.142,1.8,1.8,0,0,1-.444.049,1.437,1.437,0,0,1-.923-.337,1.269,1.269,0,0,1-.308-.386,1.04,1.04,0,0,1-.117-.488,1.026,1.026,0,0,1,.122-.522,1.553,1.553,0,0,1,.322-.386,3.654,3.654,0,0,1,.454-.337q.254-.161.518-.366.176-.137.415-.347t.488-.439q.249-.229.488-.454l.405-.381q-.156-.176-.342-.4t-.361-.469q-.176-.244-.337-.483t-.278-.444a11.844,11.844,0,0,1-.64-1.338,2.777,2.777,0,0,1-.22-.977,1.765,1.765,0,0,1,.322-1.133,1.341,1.341,0,0,1,1.1-.4.969.969,0,0,1,.557.146,1.2,1.2,0,0,1,.347.356,1.528,1.528,0,0,1,.19.444,3.165,3.165,0,0,1,.078.41,5.359,5.359,0,0,0,.19.884,4.862,4.862,0,0,0,.283.708,5.015,5.015,0,0,0,.356.605q.2.283.4.566.117-.127.264-.278t.3-.312q.151-.161.288-.317t.244-.283q.146-.176.337-.43t.381-.537q.19-.283.356-.576a4.124,4.124,0,0,0,.264-.547,3.719,3.719,0,0,1,.264-.483,1.213,1.213,0,0,1,.269-.3.871.871,0,0,1,.313-.151,1.6,1.6,0,0,1,.4-.044,1.2,1.2,0,0,1,.454.093,1.411,1.411,0,0,1,.415.259,1.369,1.369,0,0,1,.3.391,1.04,1.04,0,0,1,.117.488,1.06,1.06,0,0,1-.186.513,6.767,6.767,0,0,1-.469.669q-.283.361-.625.752t-.664.771q-.146.176-.356.4l-.444.464-.479.5q-.244.254-.479.488a5.247,5.247,0,0,0,.6.615,6.1,6.1,0,0,0,.708.542,4.443,4.443,0,0,0,.718.386,1.655,1.655,0,0,0,.625.146,3.72,3.72,0,0,0,.845-.088,3.826,3.826,0,0,0,.684-.225,3.363,3.363,0,0,0,.571-.322l.527-.371a3.635,3.635,0,0,0,.386-.317q.181-.171.342-.308a2.779,2.779,0,0,1,.308-.229.518.518,0,0,1,.273-.093.929.929,0,0,1,.3.039.412.412,0,0,1,.171.1.324.324,0,0,1,.078.137A.517.517,0,0,1,98.867,18.592Z" transform="translate(175.061 83)" fill="#000f5d"/>
    <g id="Group_11" data-name="Group 11" transform="translate(7 9)">
      <path id="Path_2" data-name="Path 2" d="M1.381.033C2.157.072,2.738.4,2.828.881A37.438,37.438,0,0,1,1.751,6.821,51.979,51.979,0,0,1,.019.741C-.015.294.605-.005,1.381.033Z" transform="matrix(0.914, -0.407, 0.407, 0.914, 148.738, 79.342)" fill="url(#linear-gradient)"/>
      <path id="Path_3" data-name="Path 3" d="M1.1.06A1.884,1.884,0,0,1,2.556,1.215a52.2,52.2,0,0,1,.286,6.744C2.708,7.989.16,1.237.037.715S.4-.078,1.1.06Z" transform="matrix(0.643, -0.766, 0.766, 0.643, 141.046, 84.595)" fill="url(#linear-gradient-2)"/>
      <path id="Path_4" data-name="Path 4" d="M1.755,0C2.463-.117,2.9.141,2.83.671A75.173,75.173,0,0,1-.056,7.72,59.693,59.693,0,0,1,.264,1.1,1.826,1.826,0,0,1,1.755,0Z" transform="translate(159.596 76.402) rotate(12)" fill="url(#linear-gradient-3)"/>
      <path id="Subtraction_3" data-name="Subtraction 3" d="M8.49,14.381H8.481c-.067-.011-.174-.249-.323-.579-.4-.881-1.136-2.522-2.336-2.559-2.359-.073-4.6-1.279-5.445-2.932A3.457,3.457,0,0,1,.291,5.347c.732-1.793,2.737-3.434,5.5-4.5A12,12,0,0,1,10.064,0c2.616,0,4.707,1.034,5.594,2.767A4.3,4.3,0,0,1,14.451,7.9c-1.075.889-.4,2.5,0,3.467.154.37.265.638.208.711a23.836,23.836,0,0,1-3.028,1.246C10.241,13.838,8.67,14.381,8.49,14.381ZM9.579,1.859a9.967,9.967,0,0,0-3.158.451,7.778,7.778,0,0,0-3.79,3.813,2.8,2.8,0,0,0-.113,2.36c.442.892,2.271,1.057,3.741,1.189a10.187,10.187,0,0,1,1.587.214c.6.17,1.2,1.453,1.514,2.143a2.047,2.047,0,0,0,.239.459.057.057,0,0,0,.022,0,13.255,13.255,0,0,0,2.747-.941,1.833,1.833,0,0,0-.2-.544c-.33-.75-.884-2-.468-2.523.077-.1.187-.224.328-.387.929-1.08,2.862-3.326,2.288-4.482C13.771,2.515,12,1.858,9.579,1.859Z" transform="translate(148.093 85.287)" fill="url(#linear-gradient-4)"/>
    </g>
  </g>
</svg>
