<svg xmlns="http://www.w3.org/2000/svg" xmlns:xlink="http://www.w3.org/1999/xlink" width="29.883" height="32.077" viewBox="0 0 29.883 32.077">
  <defs>
    <linearGradient id="linear-gradient" x1="0.5" x2="0.602" y2="2.861" gradientUnits="objectBoundingBox">
      <stop offset="0" stop-color="#7cd4fb"/>
      <stop offset="1" stop-color="#8b4bfc"/>
    </linearGradient>
    <linearGradient id="linear-gradient-2" x2="2.346" y2="2.746" xlink:href="#linear-gradient"/>
    <linearGradient id="linear-gradient-3" x2="-0.409" y2="2.678" xlink:href="#linear-gradient"/>
    <linearGradient id="linear-gradient-4" x1="0.553" y1="-0.223" x2="0.474" y2="1.087" xlink:href="#linear-gradient"/>
  </defs>
  <g id="Group_11" data-name="Group 11" transform="translate(-141.046 -76.402)">
    <path id="Path_2" data-name="Path 2" d="M1.834.05C2.847.078,3.6.512,3.7,1.161A54.476,54.476,0,0,1,2.1,9.3C1.89,9.365.061,1.669.031,1.06S.821.023,1.834.05Z" transform="matrix(0.914, -0.407, 0.407, 0.914, 150.945, 80.422)" fill="url(#linear-gradient)"/>
    <path id="Path_3" data-name="Path 3" d="M1.5.077A2.321,2.321,0,0,1,3.412,1.549a68.207,68.207,0,0,1,.1,8.946C3.331,10.541.194,1.679.05.992S.572-.077,1.5.077Z" transform="matrix(0.643, -0.766, 0.766, 0.643, 140.993, 87.694)" fill="url(#linear-gradient-2)"/>
    <path id="Path_4" data-name="Path 4" d="M2.126,0c.917-.152,1.485.211,1.406.938S.123,10.466-.087,10.577a86.729,86.729,0,0,1,.3-9.093A2.311,2.311,0,0,1,2.126,0Z" transform="translate(165.169 76.469) rotate(12)" fill="url(#linear-gradient-3)"/>
    <path id="Subtraction_3" data-name="Subtraction 3" d="M-1976.839,22.973h-.011c-.086-.015-.225-.344-.417-.8-.513-1.215-1.469-3.477-3.021-3.529-3.051-.1-5.946-1.763-7.041-4.043a5.052,5.052,0,0,1-.111-4.084c.947-2.471,3.539-4.735,7.114-6.21a14.678,14.678,0,0,1,5.522-1.162c3.382,0,6.086,1.426,7.233,3.814a6.189,6.189,0,0,1-1.561,7.08c-1.39,1.225-.523,3.451,0,4.78.2.511.343.88.269.98a29.8,29.8,0,0,1-3.915,1.718A41.091,41.091,0,0,1-1976.839,22.973Zm1.409-17.265a12.149,12.149,0,0,0-4.083.622,10.4,10.4,0,0,0-4.9,5.257,4.09,4.09,0,0,0-.146,3.254c.572,1.23,2.937,1.457,4.837,1.64a12.405,12.405,0,0,1,2.052.294c.781.235,1.546,2,1.957,2.954a2.887,2.887,0,0,0,.309.633.07.07,0,0,0,.028,0,16.427,16.427,0,0,0,3.552-1.3,2.647,2.647,0,0,0-.259-.75c-.427-1.034-1.143-2.764-.606-3.479.1-.132.242-.309.424-.534,1.2-1.489,3.7-4.585,2.958-6.179C-1970.01,6.613-1972.3,5.708-1975.43,5.709Z" transform="translate(2137.974 85.506)" fill="url(#linear-gradient-4)"/>
  </g>
</svg>
